<?xml version="1.0" encoding="utf-8"?>
<!-- Generator: Adobe Illustrator 25.0.0, SVG Export Plug-In . SVG Version: 6.00 Build 0)  -->
<svg version="1.1" id="Capa_1" xmlns="http://www.w3.org/2000/svg" xmlns:xlink="http://www.w3.org/1999/xlink" x="0px" y="0px"
	 viewBox="0 0 532 528.1" style="enable-background:new 0 0 532 528.1;" xml:space="preserve">
<style type="text/css">
	.st0{fill:url(#SVGID_1_);stroke:#093A89;stroke-width:20;stroke-linecap:round;stroke-linejoin:round;stroke-miterlimit:10;}
</style>
<linearGradient id="SVGID_1_" gradientUnits="userSpaceOnUse" x1="188.6511" y1="501.8791" x2="334.4409" y2="53.1841">
	<stop  offset="0" style="stop-color:#FFFFFF"/>
	<stop  offset="9.686364e-02" style="stop-color:#C4D0DF"/>
	<stop  offset="0.1938" style="stop-color:#92A7C3"/>
	<stop  offset="0.2891" style="stop-color:#6885AB"/>
	<stop  offset="0.3813" style="stop-color:#476B99"/>
	<stop  offset="0.4695" style="stop-color:#30588C"/>
	<stop  offset="0.552" style="stop-color:#224D85"/>
	<stop  offset="0.6231" style="stop-color:#1D4982"/>
</linearGradient>
<path class="st0" d="M244.5,13.7c13.9-5,29.1-5,43,0l192,68.6c24.6,9.1,42.5,33.2,42.5,60.3v242.8c0,27.1-17.9,51.2-42.5,60.3
	l-192,68.6c-13.9,5-29.1,5-43,0l-192-68.6C27,436.6,10,412.5,10,385.4V142.6c0-27.1,17-51.2,42.5-60.3L244.5,13.7z M266,74L92.3,136
	L266,198l173.7-62L266,74z M298,442.6l160-57.2v-188l-160,57.2V442.6z"/>
</svg>
